<svg xmlns="http://www.w3.org/2000/svg" xmlns:xlink="http://www.w3.org/1999/xlink" viewBox="0,0,256,256" width="50px" height="50px" fill-rule="nonzero"><g fill="#ffffff" fill-rule="nonzero" stroke="none" stroke-width="1" stroke-linecap="butt" stroke-linejoin="miter" stroke-miterlimit="10" stroke-dasharray="" stroke-dashoffset="0" font-family="none" font-weight="none" font-size="none" text-anchor="none" style="mix-blend-mode: normal"><g transform="scale(5.12,5.12)"><path d="M14,3.99023c-5.514,0 -10,4.486 -10,10v22c0,5.514 4.486,10 10,10h22c5.514,0 10,-4.486 10,-10v-22c0,-5.514 -4.486,-10 -10,-10zM24.99023,10.76563c0.066,0 0.28363,0.02 0.39063,0.25l11.2168,24.12695c0.105,0.228 -0.01859,0.40608 -0.05859,0.45508c-0.041,0.049 -0.19155,0.20658 -0.43555,0.14258l-6.81836,-1.72656c-0.12848,-0.03267 -0.25567,-0.03409 -0.38281,-0.03125l0.03516,-0.05469l-3.96094,-17.92773v23.35547c-0.08764,-0.00428 -0.25144,-0.03251 -0.35156,-0.22266l-2.3457,-4.46875c-0.252,-0.481 -0.73877,-0.76562 -1.25977,-0.76562c-0.124,0 -0.249,0.01778 -0.375,0.05078l-6.74805,1.80078c-0.238,0.063 -0.38545,-0.07567 -0.43945,-0.13867c-0.041,-0.049 -0.1685,-0.22703 -0.0625,-0.45703l11.20703,-24.14062c0.107,-0.229 0.32467,-0.24805 0.38867,-0.24805z"></path></g></g></svg>